<svg width="92" height="22" viewBox="0 0 92 22" fill="none" xmlns="http://www.w3.org/2000/svg">
<path d="M11.6666 9.49805L18.8333 9.49805L13.1733 21.4822L6.00659 21.4822L11.6666 9.49805Z" fill="#98AD17"/>
<path d="M6.55556 0.517822L13.7222 0.517822L8.06219 12.502L0.895508 12.502L6.55556 0.517822Z" fill="#C1D642"/>
<path d="M28.9984 21.4823V15.4541H29.055C29.8762 16.8161 31.2919 17.7241 33.4156 17.7241C36.8417 17.7241 39.7015 15.2271 39.7015 10.7438C39.7015 6.26046 36.8417 3.76343 33.4156 3.76343C31.2919 3.76343 29.8762 4.67144 29.055 6.03346H28.9984V4.18906H25.5439V21.4823H28.9984ZM32.5378 14.4326C30.4425 14.4326 28.9984 12.9571 28.9984 10.7438C28.9984 8.53049 30.4425 7.05497 32.5378 7.05497C34.6331 7.05497 36.0772 8.53049 36.0772 10.7438C36.0772 12.9571 34.6331 14.4326 32.5378 14.4326Z" fill="#C0C0C0"/>
<path d="M83.2327 17.7241C85.3564 17.7241 86.7722 16.8161 87.5933 15.4541H87.6499V17.2985H91.1044V4.18906H87.6499V6.03346H87.5933C86.7722 4.67144 85.3564 3.76343 83.2327 3.76343C79.8066 3.76343 76.9468 6.26046 76.9468 10.7438C76.9468 15.2271 79.8066 17.7241 83.2327 17.7241ZM84.1105 14.4326C82.0152 14.4326 80.5711 12.9571 80.5711 10.7438C80.5711 8.53049 82.0152 7.05497 84.1105 7.05497C86.2058 7.05497 87.6499 8.53049 87.6499 10.7438C87.6499 12.9571 86.2058 14.4326 84.1105 14.4326Z" fill="#C0C0C0"/>
<path d="M70.8264 12.8044L67.9665 4.1499H64.682L61.8221 12.7476L59.3021 4.1499H55.6777L60.2365 17.2593H63.3228L66.3242 8.68996L69.3257 17.2593H72.412L76.9708 4.1499H73.3464L70.8264 12.8044Z" fill="#C0C0C0"/>
<path d="M46.8748 17.7241C48.9985 17.7241 50.4142 16.8161 51.2354 15.4541H51.292V17.2985H54.7465V4.18906H51.292V6.03346H51.2354C50.4142 4.67144 48.9985 3.76343 46.8748 3.76343C43.4487 3.76343 40.5889 6.26046 40.5889 10.7438C40.5889 15.2271 43.4487 17.7241 46.8748 17.7241ZM47.7526 14.4326C45.6573 14.4326 44.2132 12.9571 44.2132 10.7438C44.2132 8.53049 45.6573 7.05497 47.7526 7.05497C49.8479 7.05497 51.292 8.53049 51.292 10.7438C51.292 12.9571 49.8479 14.4326 47.7526 14.4326Z" fill="#C0C0C0"/>
</svg>
