<svg width="13" height="12" viewBox="0 0 13 12" fill="none" xmlns="http://www.w3.org/2000/svg">
<path d="M12.3052 10.8359L10.141 8.68923C10.9811 7.64181 11.3879 6.31232 11.2778 4.97416C11.1677 3.63599 10.5491 2.39086 9.54922 1.49478C8.5493 0.598695 7.24405 0.119781 5.90187 0.156507C4.55969 0.193234 3.28258 0.742811 2.33316 1.69223C1.38374 2.64165 0.834164 3.91876 0.797438 5.26094C0.760711 6.60312 1.23963 7.90837 2.13571 8.90829C3.03179 9.90821 4.27692 10.5268 5.61509 10.6369C6.95325 10.7469 8.28274 10.3401 9.33016 9.50007L11.4768 11.6467C11.5311 11.7014 11.5956 11.7448 11.6667 11.7744C11.7377 11.804 11.814 11.8193 11.891 11.8193C11.968 11.8193 12.0442 11.804 12.1153 11.7744C12.1864 11.7448 12.2509 11.7014 12.3052 11.6467C12.4103 11.538 12.4691 11.3926 12.4691 11.2413C12.4691 11.09 12.4103 10.9447 12.3052 10.8359ZM6.05766 9.50007C5.25006 9.50007 4.46059 9.26058 3.78908 8.8119C3.11758 8.36322 2.59421 7.72549 2.28516 6.97936C1.9761 6.23323 1.89523 5.4122 2.05279 4.62011C2.21035 3.82803 2.59925 3.10045 3.17031 2.52938C3.74138 1.95832 4.46896 1.56942 5.26104 1.41186C6.05313 1.2543 6.87416 1.33517 7.62029 1.64422C8.36642 1.95328 9.00415 2.47665 9.45283 3.14815C9.90151 3.81966 10.141 4.60913 10.141 5.41673C10.141 6.4997 9.71079 7.53831 8.94502 8.30409C8.17924 9.06986 7.14063 9.50007 6.05766 9.50007Z" fill="#D9D9D9"/>
</svg>
